HIERARCHY
ROOT Hips
{
	OFFSET 50.371201 -10.811614 85.524902
	CHANNELS 6 Xposition Yposition Zposition Xrotation Yrotation Zrotation
	JOINT spine
	{
		OFFSET 0.000000 -0.367607 6.392601
		CHANNELS 3 Xrotation Yrotation Zrotation
		JOINT spine1
		{
			OFFSET 0.000000 -0.000001 9.176109
			CHANNELS 3 Xrotation Yrotation Zrotation
			JOINT spine2
			{
				OFFSET 0.000000 -0.000002 8.792381
				CHANNELS 3 Xrotation Yrotation Zrotation
				JOINT Neck
				{
					OFFSET 0.000000 -1.076243 22.573692
					CHANNELS 3 Xrotation Yrotation Zrotation
					JOINT Head
					{
						OFFSET 0.000000 -0.000001 6.820114
						CHANNELS 3 Xrotation Yrotation Zrotation
						End Site
						{
							OFFSET 0.000000 5.444268 16.508499
						}
					}
				}
				JOINT RightShoulder
				{
					OFFSET -3.702209 0.515507 9.495087
					CHANNELS 3 Xrotation Yrotation Zrotation
					JOINT RightArm
					{
						OFFSET 0.000000 -0.000003 12.453697
						CHANNELS 3 Xrotation Yrotation Zrotation
						JOINT RightArmRoll
						{
							OFFSET 0.000000 -0.000001 6.286865
							CHANNELS 3 Xrotation Yrotation Zrotation
							JOINT RightForeArm
							{
								OFFSET 0.000000 -0.000003 18.311401
								CHANNELS 3 Xrotation Yrotation Zrotation
								JOINT RightForeArmRoll
								{
									OFFSET 0.000000 -0.000001 7.054825
									CHANNELS 3 Xrotation Yrotation Zrotation
									JOINT RightHand
									{
										OFFSET 0.000000 -0.000002 14.157501
										CHANNELS 3 Xrotation Yrotation Zrotation
										End Site
										{
											OFFSET 0.000000 0.000000 0.100006
										}
									}
								}
							}
						}
					}
				}
				JOINT LeftShoulder
				{
					OFFSET 3.702209 0.515507 9.495087
					CHANNELS 3 Xrotation Yrotation Zrotation
					JOINT LeftArm
					{
						OFFSET 0.000000 -0.000003 12.453697
						CHANNELS 3 Xrotation Yrotation Zrotation
						JOINT LeftArmRoll
						{
							OFFSET 0.000000 -0.000001 6.286850
							CHANNELS 3 Xrotation Yrotation Zrotation
							JOINT LeftForeArm
							{
								OFFSET 0.000000 -0.000003 18.311401
								CHANNELS 3 Xrotation Yrotation Zrotation
								JOINT LeftForeArmRoll
								{
									OFFSET 0.000000 -0.000001 7.054825
									CHANNELS 3 Xrotation Yrotation Zrotation
									JOINT LeftHand
									{
										OFFSET 0.000000 -0.000002 14.157501
										CHANNELS 3 Xrotation Yrotation Zrotation
										End Site
										{
											OFFSET 0.000000 0.000000 0.100006
										}
									}
								}
							}
						}
					}
				}
			}
		}
	}
	JOINT RightUpLeg
	{
		OFFSET -5.666161 0.871611 -1.039032
		CHANNELS 3 Xrotation Yrotation Zrotation
		JOINT RightUpLegRoll
		{
			OFFSET 0.000000 -0.000003 16.600502
			CHANNELS 3 Xrotation Yrotation Zrotation
			JOINT RightLeg
			{
				OFFSET 0.000000 0.000003 -20.557198
				CHANNELS 3 Xrotation Yrotation Zrotation
				JOINT RightLegRoll
				{
					OFFSET 0.000000 -0.000003 20.624397
					CHANNELS 3 Xrotation Yrotation Zrotation
					JOINT RightFoot
					{
						OFFSET 0.000000 -0.000003 17.166405
						CHANNELS 3 Xrotation Yrotation Zrotation
						JOINT RightToeBase
						{
							OFFSET 0.000000 -0.000003 14.350204
							CHANNELS 3 Xrotation Yrotation Zrotation
							End Site
							{
								OFFSET 0.006081 0.801060 6.949707
							}
						}
					}
				}
			}
		}
	}
	JOINT LeftUpLeg
	{
		OFFSET 5.666161 0.871611 -1.039032
		CHANNELS 3 Xrotation Yrotation Zrotation
		JOINT LeftUpLegRoll
		{
			OFFSET 0.000000 -0.000003 16.600601
			CHANNELS 3 Xrotation Yrotation Zrotation
			JOINT LeftLeg
			{
				OFFSET 0.000000 -0.000004 20.557098
				CHANNELS 3 Xrotation Yrotation Zrotation
				JOINT LeftLegRoll
				{
					OFFSET 0.000000 -0.000003 20.815094
					CHANNELS 3 Xrotation Yrotation Zrotation
					JOINT LeftFoot
					{
						OFFSET 0.000000 -0.000003 16.975693
						CHANNELS 3 Xrotation Yrotation Zrotation
						JOINT LeftToeBase
						{
							OFFSET 0.000000 -0.000003 14.350204
							CHANNELS 3 Xrotation Yrotation Zrotation
							End Site
							{
								OFFSET -0.027260 0.801060 6.949707
							}
						}
					}
				}
			}
		}
	}
}
MOTION
Frames: 6
Frame Time: 0.041667
48.738998 -5.023295 90.572693 4.270449 -1.777564 1.999183 -2.103764 0.692694 -0.095070 -0.203741 1.387892 -0.177827 1.441532 1.385672 -0.194444 19.956809 -3.247770 -0.883478 2.369421 -0.010451 -0.769042 -14.292436 -57.511545 -16.863230 -119.094607 -109.297104 -80.121473 0.000002 0.000009 -0.000003 0.811220 6.242149 -0.388380 -0.000002 0.000001 -3.020156 -5.000190 -7.998791 0.000174 -13.132490 53.919511 15.325710 -110.129069 99.373331 109.976277 0.000001 -0.000005 0.000004 40.027774 15.409612 -3.805384 -0.000006 0.000002 3.000001 -5.000189 7.998725 -0.000159 -15.203475 -175.514005 1.389258 -179.999991 0.000005 -1.010999 154.814038 -3.743072 -1.949426 0.000001 0.000002 0.330847 68.121950 6.718121 2.634795 24.997324 -7.358522 0.250582 -12.472199 179.387788 3.414629 -0.000005 -0.000004 -1.007990 -21.637199 -0.006422 0.753271 -0.000001 -0.000004 -0.245062 68.250392 -6.859393 -2.280702 24.961130 7.354667 0.143932 
48.772202 -4.963306 90.427490 4.273218 -1.790312 1.964191 -2.101544 0.688328 -0.097113 -0.199280 1.379191 -0.180417 1.445998 1.376942 -0.196929 20.044701 -3.180615 -0.872454 2.161021 -0.074002 -0.756090 -13.828087 -57.982316 -16.320298 -118.988493 -109.205292 -79.873591 -0.000003 0.000006 -0.000006 0.616158 6.389434 -0.361699 -0.000003 0.000003 -3.023125 -5.000184 -7.998789 0.000176 -13.076968 54.491615 15.280846 -110.197084 99.270912 110.216215 0.000001 -0.000004 0.000004 39.113242 15.919651 -3.891419 -0.000006 0.000001 3.000002 -5.000188 7.998722 -0.000158 -15.310935 -175.646552 1.373225 -179.999991 0.000005 -1.006997 154.668992 -3.793798 -1.968934 0.000004 0.000002 0.332744 68.148718 6.715343 2.639321 25.019425 -7.358275 0.238584 -12.506520 179.580208 3.522016 -0.000005 -0.000005 -1.005910 -21.717703 -0.039458 0.748905 0.000000 -0.000004 -0.246697 68.271484 -6.857882 -2.281501 24.984974 7.354758 0.137019 
48.754200 -4.976315 90.284386 4.277322 -1.804324 1.932427 -2.098492 0.683839 -0.098854 -0.193165 1.370233 -0.182558 1.452104 1.367951 -0.198962 20.109272 -3.108936 -0.863098 1.969057 -0.139097 -0.744071 -13.376640 -58.436162 -15.793733 -118.795923 -109.106302 -79.597338 -0.000001 0.000004 -0.000009 0.436248 6.492000 -0.339506 -0.000002 0.000001 -3.026381 -5.000184 -7.998793 0.000171 -13.029148 55.057704 15.244492 -110.208067 99.176744 110.383391 0.000001 -0.000003 0.000004 38.190890 16.404139 -3.956950 -0.000005 0.000002 3.000001 -5.000191 7.998723 -0.000160 -15.423786 -175.772336 1.360207 -179.999991 0.000005 -1.002994 154.508592 -3.842981 -1.988309 0.000003 0.000003 0.334770 68.175779 6.712870 2.643301 25.071825 -7.357748 0.210007 -12.547878 179.774499 3.628847 -0.000004 -0.000004 -1.003900 -21.813715 -0.072971 0.744673 -0.000001 -0.000004 -0.248392 68.289570 -6.856491 -2.282208 25.041449 7.354950 0.120618 
48.812099 -4.950794 90.112595 4.282812 -1.819857 1.904344 -2.094489 0.679226 -0.100180 -0.185159 1.361013 -0.184074 1.460111 1.358719 -0.200368 20.147736 -3.032701 -0.855522 1.796024 -0.205169 -0.733030 -12.941884 -58.870848 -15.287765 -118.504957 -108.998379 -79.289795 0.000001 0.000006 -0.000004 0.269323 6.542569 -0.322724 -0.000001 0.000003 -3.029894 -5.000188 -7.998793 0.000175 -12.988946 55.616065 15.216282 -110.146035 99.090076 110.460442 0.000002 -0.000005 0.000004 37.262268 16.856349 -4.001607 -0.000004 0.000003 3.000002 -5.000186 7.998719 -0.000157 -15.542714 -175.892343 1.351087 -179.999991 0.000005 -1.000003 154.331034 -3.891446 -2.008132 0.000002 0.000003 0.336949 68.203359 6.710679 2.646599 25.159260 -7.356986 0.162381 -12.597279 179.970731 3.735071 -0.000005 -0.000004 -1.001970 -21.928037 -0.106859 0.740628 0.000000 -0.000004 -0.250181 68.304535 -6.855220 -2.282935 25.135711 7.355217 0.093254 
48.793598 -4.945797 89.957283 4.289758 -1.837172 1.880394 -2.089416 0.674490 -0.100983 -0.175022 1.351544 -0.184793 1.470248 1.349246 -0.200974 20.157003 -2.951891 -0.849818 1.644411 -0.271649 -0.722997 -12.527982 -59.284519 -14.807032 -118.102659 -108.879854 -78.947240 -0.000002 0.000007 -0.000003 0.113217 6.533819 -0.312288 -0.000001 -0.000000 -3.033730 -5.000189 -7.998792 0.000177 -12.956324 56.165120 15.195882 -109.995928 99.010258 110.430833 0.000001 -0.000006 0.000004 36.328963 17.269297 -4.025388 -0.000004 0.000004 3.000001 -5.000188 7.998722 -0.000159 -15.668051 -176.003702 1.345673 -179.999991 0.000005 -0.996001 154.134529 -3.938176 -2.029132 0.000003 0.000002 0.339298 68.231431 6.708775 2.649321 25.286074 -7.356174 0.093204 -12.655735 180.169776 3.840458 -0.000005 -0.000004 -1.000120 -22.063570 -0.141019 0.736824 0.000000 -0.000004 -0.252099 68.316290 -6.854095 -2.283589 25.272598 7.355483 0.053522 
48.832100 -4.921464 89.785202 4.298241 -1.856547 1.861003 -2.083161 0.669631 -0.101151 -0.162512 1.341805 -0.184540 1.482755 1.339512 -0.200605 20.134178 -2.866477 -0.846015 1.516738 -0.337967 -0.713974 -12.139282 -59.675247 -14.356392 -117.576830 -108.749049 -78.566273 0.000000 0.000008 -0.000009 -0.034233 6.458460 -0.309130 -0.000001 0.000006 -3.037879 -5.000187 -7.998792 0.000177 -12.931239 56.703356 15.183020 -109.742316 98.936718 110.277823 0.000001 -0.000005 0.000004 35.392801 17.636090 -4.028985 -0.000003 0.000003 3.000001 -5.000190 7.998723 -0.000160 -15.800599 -176.106401 1.344572 -179.999991 0.000005 -0.992995 153.917247 -3.983981 -2.050918 0.000003 0.000002 0.341840 68.259941 6.707230 2.651093 25.456957 -7.355614 0.000001 -12.724246 180.370679 3.945171 -0.000005 -0.000004 -0.998348 -22.223209 -0.175349 0.733299 0.000000 -0.000004 -0.254180 68.324616 -6.853104 -2.284182 25.456960 7.355613 -0.000000 
